<?xml version="1.0" encoding="UTF-8"?>
<svg id="Capa_1" data-name="Capa 1" xmlns="http://www.w3.org/2000/svg" viewBox="0 0 1445 800">
  <defs>
    <style>
      .cls-1 {
        fill: #3ba6df;
      }

      .cls-2 {
        fill: #2b3180;
      }

      .cls-3 {
        fill: #606060;
      }
    </style>
  </defs>
  <path class="cls-1" d="m1104.48,594.47c19.16,0,27.02,9.75,23.58,29.26l-10.15,57.82c-.35,2.07-1.61,3.1-3.79,3.1h-4.75c-2.72,0-3.79-1.3-3.19-3.9l10.11-57.63c1.18-6.86.53-11.79-1.95-14.81-2.48-3.01-7.16-4.52-14.01-4.52h-24.12c-11.35,0-20.81,2.42-28.37,7.27l-9.93,6.38c0,1.3-.18,2.78-.53,4.43l-10.46,59.57c-.35,2.13-1.65,3.19-3.9,3.19h-7.63c-2.48,0-3.55-1.3-3.19-3.9l10.29-57.63c1.18-6.86.53-11.79-1.95-14.81-2.48-3.01-7.16-4.52-14.01-4.52h-24.11c-11.23,0-20.69,2.42-28.37,7.27l-9.75,6.21-11.17,64.18c-.35,2.13-1.66,3.19-3.9,3.19h-4.58c-2.41,0-3.45-1.26-3.1-3.79l14.63-83.3c.34-2.06,1.61-3.1,3.79-3.1h5.16c2.18,0,3.27,1.09,3.27,3.27l-.52,9.81,4.47-2.92c6.42-4.36,12.05-7.14,16.87-8.35,4.82-1.2,11.53-1.81,20.14-1.81h23.92c13.42,0,21.34,4.77,23.75,14.28l6.37-4.13c6.42-4.25,12.07-7,16.95-8.26,4.87-1.26,11.56-1.89,20.05-1.89h24.1Z"/>
  <path class="cls-2" d="m1390,594.4c20.38,0,28.74,8.26,25.09,28.89l-10.07,56.64c-.47,3.15-2.42,4.72-5.83,4.72h-13.33c-3.73,0-5.31-1.9-4.72-5.71l9.44-52.4c.93-5.65.38-9.68-1.66-12.11-2.04-2.42-5.92-3.63-11.62-3.63h-49.29c-9.44,0-17.19,1.96-23.25,5.88l-8.04,5.54c-.12.23-.21.52-.26.86-.06.35-.09.63-.09.86l-9.79,56.03c-.47,3.11-2.39,4.67-5.77,4.67h-12.06c-1.87,0-3.21-.52-4.02-1.56-.82-1.04-1.05-2.42-.7-4.15l9.26-52.4c1.05-5.65.55-9.68-1.49-12.11-2.04-2.42-5.91-3.63-11.62-3.63h-49.29c-9.32,0-17.13,1.96-23.42,5.88l-7.86,5.36-10.31,57.94c-.58,3.11-2.45,4.67-5.59,4.67h-13.65c-3.77,0-5.36-1.92-4.77-5.77l14.67-79.76c.59-3.15,2.47-4.72,5.65-4.72h9.19c3.3,0,5.12,1.63,5.48,4.9l-.17,7.52,1.41-.87c6.83-4.9,12.69-8.04,17.58-9.44,4.89-1.4,11.81-2.1,20.76-2.1h51.77c13.66,0,21.91,4.66,24.73,13.99l3.53-2.45c6.83-4.9,12.69-8.04,17.58-9.44,4.89-1.4,11.81-2.1,20.76-2.1h51.77Z"/>
  <g>
    <path class="cls-3" d="m55.87,684.75c-10.21,0-17.55-2.69-22.03-8.09-4.48-5.39-5.79-13.25-3.96-23.58l10.67-60.58c1.83-10.44,5.25-17.75,10.24-21.94,4.99-4.19,12.65-6.28,22.98-6.28h50.15c10.01,0,17.21,2.64,21.6,7.93,4.39,5.29,5.68,12.99,3.88,23.12l-1.18,6.75c-.23,1.58-1.13,2.36-2.7,2.36h-5.18c-1.86,0-2.62-.99-2.27-2.97l1.05-5.94c1.28-8.03.41-13.91-2.62-17.63-3.03-3.72-8.56-5.59-16.59-5.59h-44.16c-7.96,0-13.75,1.56-17.38,4.67-3.63,3.11-6.14,8.65-7.52,16.61l-10.21,57.95c-1.38,7.96-.55,13.81,2.51,17.56,3.05,3.75,8.56,5.62,16.52,5.62h44.01c8.14,0,14.03-1.56,17.69-4.69,3.65-3.12,6.25-8.75,7.78-16.89l1.77-10.26c.12-1.53,1.06-2.3,2.83-2.3h5.51c2.03,0,2.8.96,2.33,2.86l-1.97,11.98c-1.91,10.85-5.45,18.45-10.64,22.8-5.19,4.35-13.14,6.53-23.87,6.53h-49.21Z"/>
    <path class="cls-3" d="m189.28,684.75c-19.16,0-27-9.58-23.54-28.73l6.4-36.7c1.61-9.58,4.53-16.12,8.74-19.65,4.21-3.52,11.05-5.28,20.51-5.28h39.81c9.35,0,16.04,2.42,20.08,7.27,4.04,4.85,5.25,12,3.63,21.46l-6.4,36.69c-1.73,9.58-4.7,16.13-8.91,19.65-4.21,3.52-11.05,5.28-20.51,5.28h-39.81Zm3.65-10.04h34.41c7.15,0,12.13-1.18,14.96-3.54,2.82-2.36,4.81-7.06,5.97-14.09l6.05-34.41c1.27-7.15.58-12.3-2.07-15.48-2.65-3.17-7.55-4.76-14.7-4.76h-34.41c-7.15,0-12.13,1.18-14.96,3.55-2.83,2.36-4.82,7.06-5.97,14.09l-6.05,34.41c-1.27,7.15-.58,12.31,2.08,15.48,2.65,3.17,7.55,4.76,14.7,4.76Z"/>
    <path class="cls-3" d="m359.27,594.4c19.15,0,27,9.58,23.54,28.73l-10.39,59.37c-.12,1.5-1.04,2.25-2.77,2.25h-5.6c-1.82,0-2.62-.91-2.39-2.73l10.08-57.59c1.25-7.06.6-12.16-1.97-15.29-2.56-3.13-7.38-4.7-14.44-4.7h-12.47c-11.73,0-21.64,2.51-29.73,7.52l-10.25,6.32-11.11,64.25c-.34,1.48-1.31,2.22-2.9,2.22h-5.76c-1.96,0-2.71-.92-2.25-2.77l14.89-85.33c.35-1.5,1.33-2.25,2.94-2.25h3.31c1.41,0,2.5,1.15,2.4,2.56l-.69,10.76,5.89-3.81c6.34-4.04,11.97-6.63,16.88-7.79,4.9-1.15,11.62-1.73,20.16-1.73h12.64Z"/>
    <path class="cls-3" d="m478.54,594.4c.73,0,1.28.24,1.65.71.37.47.5,1.08.39,1.81l-.63,3.46c-.11,1.37-.89,2.05-2.36,2.05h-42.36l-10.01,56.93c-.92,5.41-.38,9.32,1.64,11.73,2.01,2.41,5.72,3.62,11.13,3.62h26.24s2.63,1.48,2.4,3.43l-.69,3.78c-.34,1.49-2.75.83-2.75.83h-29.26c-15.46,0-21.83-7.73-19.1-23.19l9.89-57.12h-17.22c-1.68,0-2.42-.84-2.2-2.52l.63-3.46c.31-1.36,1.15-2.05,2.52-2.05h18.01l5.19-18.07c.34-1.34,1.28-2.01,2.85-2.01h2.84c1.78,0,2.56.89,2.34,2.68l-3.01,17.4h41.87Z"/>
    <path class="cls-3" d="m565.61,594.4c18.69,0,26.42,9.35,23.19,28.04l-10.56,59.89c-.35,1.62-1.33,2.42-2.94,2.42h-1.53c-1.91,0-2.74-.89-2.5-2.68l.89-11.62-8.94,5.54c-5.96,3.82-11.08,6.23-15.37,7.24-4.29,1.01-10.37,1.52-18.24,1.52h-21.63c-7.15,0-12.42-2.06-15.82-6.17-3.4-4.11-4.44-9.74-3.13-16.89l1.61-8.76c1.43-7.51,3.93-12.78,7.51-15.82,3.58-3.04,9-4.56,16.27-4.56h61.6l2-11.15c1.22-7.1.69-12.04-1.58-14.81-2.28-2.77-6.96-4.16-14.06-4.16h-33.16c-5.38,0-9.23.99-11.56,2.96-2.33,1.97-3.97,5.59-4.93,10.85l-.72,3.94c-.12,1.55-1.02,2.33-2.69,2.33h-4.9c-1.86,0-2.68-.93-2.44-2.79l.87-4.19c1.4-7.8,3.99-13.27,7.77-16.41,3.78-3.14,9.52-4.71,17.2-4.71h37.79Zm-6.27,75.46l12.01-7.38,1.89-10.46,1.71-9.43h-57.46c-4.92,0-8.49.92-10.72,2.74-2.23,1.83-3.75,5.2-4.55,10.12l-1.03,6.69c-.8,5.15-.26,8.86,1.63,11.15,1.89,2.29,5.4,3.43,10.55,3.43h20.58c9.26,0,17.72-2.29,25.38-6.86Z"/>
    <path class="cls-3" d="m709.87,594.4c1.93,0,2.67.91,2.22,2.73l-14.86,84.18c-1.82,10.36-5.49,17.87-11.01,22.54-5.52,4.67-13.4,7-23.65,7h-57.01c-.75,0-1.31-.24-1.69-.72-.38-.48-.51-1.1-.4-1.85l.64-3.21c.11-1.5.91-2.25,2.41-2.25h55.01c7.75,0,13.53-1.6,17.36-4.8,3.82-3.2,6.4-8.73,7.75-16.6l2.86-15.67-5.73,3.54c-6.18,3.93-11.65,6.49-16.43,7.67-4.77,1.18-11.26,1.77-19.46,1.77h-14.79c-18.74,0-26.38-9.31-22.94-27.94l5.52-31.21c1.61-9.54,4.57-16.12,8.88-19.75,4.31-3.62,11.18-5.43,20.61-5.43h15.85c8.76,0,15.54.57,20.32,1.71,4.78,1.14,9.5,3.7,14.17,7.68l4.95,4.27,3.41-11.44c.34-1.48,1.31-2.22,2.9-2.22h3.07Zm-28.44,66.41l10.1-6.33,1.71-10.1,4.97-28.42-7.88-6.33c-5.94-4.79-15.41-7.19-28.42-7.19h-15.75c-6.96,0-11.76,1.14-14.38,3.42-2.63,2.28-4.57,6.91-5.82,13.87l-4.97,29.11c-1.26,7.19-.66,12.3,1.8,15.32,2.45,3.03,7.22,4.54,14.3,4.54h14.55c11.41,0,21.34-2.62,29.79-7.88Z"/>
    <path class="cls-3" d="m798.81,594.4c2.07,0,2.86.98,2.37,2.92l-.73,4.75c-.36,1.58-1.4,2.37-3.1,2.37h-9.27c-11.93,0-21.9,2.52-29.92,7.57l-10.32,6.53-11.01,63.98c-.34,1.49-1.32,2.24-2.92,2.24h-5.16c-1.96,0-2.71-.92-2.25-2.77l14.89-85.33c.35-1.5,1.33-2.25,2.94-2.25h1c1.94,0,2.8.91,2.55,2.74l-.73,11.5,6.57-4.2c6.69-4.26,12.69-7,17.98-8.21,5.29-1.22,12.44-1.83,21.45-1.83h5.66Z"/>
    <path class="cls-3" d="m882.32,594.4c18.69,0,26.42,9.35,23.19,28.04l-10.56,59.89c-.35,1.62-1.33,2.42-2.94,2.42h-1.53c-1.91,0-2.74-.89-2.5-2.68l.89-11.62-8.94,5.54c-5.96,3.82-11.08,6.23-15.37,7.24-4.29,1.01-10.37,1.52-18.24,1.52h-21.63c-7.15,0-12.42-2.06-15.82-6.17-3.4-4.11-4.44-9.74-3.13-16.89l1.61-8.76c1.43-7.51,3.93-12.78,7.51-15.82,3.58-3.04,9-4.56,16.27-4.56h61.6l2-11.15c1.22-7.1.69-12.04-1.58-14.81-2.28-2.77-6.96-4.16-14.06-4.16h-33.16c-5.38,0-9.23.99-11.56,2.96-2.33,1.97-3.97,5.59-4.93,10.85l-.72,3.94c-.12,1.55-1.02,2.33-2.69,2.33h-4.9c-1.86,0-2.68-.93-2.44-2.79l.87-4.19c1.4-7.8,3.99-13.27,7.77-16.41,3.78-3.14,9.52-4.71,17.2-4.71h37.79Zm-6.27,75.46l12.01-7.38,1.89-10.46,1.71-9.43h-57.46c-4.92,0-8.49.92-10.72,2.74-2.23,1.83-3.75,5.2-4.55,10.12l-1.03,6.69c-.8,5.15-.26,8.86,1.63,11.15,1.89,2.29,5.4,3.43,10.55,3.43h20.58c9.26,0,17.72-2.29,25.38-6.86Z"/>
  </g>
  <path class="cls-2" d="m692.16,106.5c12.74-20.92,26.89-22.88,46.02-6.1l52.5,46.14c3.09,2.57,3.52,5.68,1.3,9.33l-4.79,7.68c-2.44,4-5.53,4.43-9.27,1.29l-48.78-43.07c-5.27-4.52-9.81-6.5-13.59-5.94-3.79.57-6.74,4.71-10.31,10.56l-30.98,50.87c-5.89,9.68-9.51,18.09-9.23,26.77l.71,11.74c.17.27.41.54.73.81.32.28.6.49.84.64l53.18,46.45c3.07,2.56,3.51,5.66,1.3,9.29l-4.63,7.62c-1.22,2.01-2.67,3.1-4.33,3.29-1.66.19-3.32-.47-4.97-1.99l-48.9-42.9c-5.2-4.64-9.7-6.68-13.48-6.12-3.79.56-7.46,3.78-11.03,9.64l-31.24,50.87c-5.83,9.56-8.49,18.97-8.35,27.89l.64,11.45,54.29,47.74c2.76,2.47,3.19,5.26,1.3,8.37l-5.38,8.8c-2.26,3.71-5.13,4.11-8.6,1.2l-76.04-67.02c-2.9-2.59-3.35-5.52-1.36-8.78,0,0,2.7-4.41,3.62-5.91,1.82-2.98,5.36-4.51,8.52-2.51l7.68,4.93-.02-2c-.81-10.09-.39-18.09,1.19-23.99,2.3-8.57,10.77-22.44,10.77-22.44,0,0,22.04-36.09,29.25-47.89,4.41-7.22,17.36-20.08,28.79-17.09l-.33-5.17c-.81-10.09-.41-18.09,1.19-23.99,1.6-5.89,11.79-21.74,11.79-21.74l29.98-48.73Z"/>
  <path class="cls-1" d="m752.84,454.04c-12.74,20.92-26.89,22.88-46.02,6.1l-52.5-46.14c-3.09-2.57-3.52-5.68-1.3-9.33l4.79-7.68c2.44-4,5.53-4.43,9.27-1.29l48.78,43.07c5.27,4.52,9.81,6.5,13.59,5.94,3.79-.57,6.74-4.71,10.31-10.56l30.98-50.87c5.89-9.68,9.51-18.09,9.23-26.77l-.71-11.74c-.17-.27-.41-.54-.73-.81-.32-.28-.6-.49-.84-.64l-53.18-46.45c-3.07-2.56-3.51-5.66-1.3-9.29l4.63-7.62c1.22-2.01,2.67-3.1,4.33-3.29,1.66-.19,3.32.47,4.97,1.99l48.9,42.9c5.2,4.64,9.7,6.68,13.48,6.12,3.79-.56,7.46-3.78,11.03-9.64l31.24-50.87c5.83-9.56,8.49-18.97,8.35-27.89l-.64-11.45-54.29-47.74c-2.76-2.47-3.19-5.26-1.3-8.37l5.38-8.8c2.26-3.71,5.13-4.11,8.6-1.2l76.04,67.02c2.9,2.59,3.35,5.52,1.36,8.78,0,0-2.7,4.41-3.62,5.91-1.82,2.98-5.36,4.51-8.52,2.51l-7.68-4.93.02,2c.81,10.09.39,18.09-1.19,23.99-2.3,8.57-10.77,22.44-10.77,22.44,0,0-22.04,36.09-29.25,47.89-4.41,7.22-17.36,20.08-28.79,17.09l.33,5.17c.81,10.09.41,18.09-1.19,23.99-1.6,5.89-11.79,21.74-11.79,21.74l-29.98,48.73Z"/>
  <circle class="cls-3" cx="774.91" cy="488.44" r="11.06"/>
</svg>